<?xml version="1.0" encoding="utf-8"?>
<!-- Generator: Adobe Illustrator 16.0.0, SVG Export Plug-In . SVG Version: 6.00 Build 0)  -->
<!DOCTYPE svg PUBLIC "-//W3C//DTD SVG 1.1//EN" "http://www.w3.org/Graphics/SVG/1.1/DTD/svg11.dtd">
<svg version="1.1" id="Layer_1" xmlns="http://www.w3.org/2000/svg" xmlns:xlink="http://www.w3.org/1999/xlink" x="0px" y="0px"
	 width="144px" height="61.875px" viewBox="0 0 144 61.875" enable-background="new 0 0 144 61.875" xml:space="preserve">
<g id="CIMI">
	<g>
		<path fill="#FFFFFF" d="M48.463,17.138c2.227,0,3.874-0.594,4.946-1.784c1.071-1.19,1.607-2.662,1.607-4.415
			c0-1.754-0.536-3.235-1.607-4.447c-1.072-1.21-2.719-1.816-4.946-1.816c-2.143,0-3.761,0.606-4.853,1.816
			c-1.092,1.211-1.637,2.693-1.637,4.447c0,1.753,0.545,3.224,1.637,4.415C44.702,16.543,46.32,17.138,48.463,17.138z"/>
	</g>
	<g>
		<path fill="#FFFFFF" d="M120.238,17.136c2.225,0,3.874-0.594,4.945-1.783c1.07-1.19,1.607-2.662,1.607-4.416
			c0-1.753-0.537-3.234-1.607-4.445c-1.071-1.21-2.721-1.816-4.945-1.816c-2.143,0-3.761,0.606-4.853,1.816
			c-1.094,1.21-1.639,2.692-1.639,4.445c0,1.754,0.545,3.226,1.639,4.416C116.478,16.542,118.096,17.136,120.238,17.136z"/>
	</g>
	<g>
		<path fill="#FFFFFF" d="M136.388,30.37c-0.483-0.646-0.998-1.006-1.545-1.074c-0.548-0.069-1.062,0.173-1.544,0.728
			c-0.482,0.555-0.723,1.526-0.723,2.913c0,2.357-0.079,4.287-0.231,5.789c-0.154,1.502-0.384,2.681-0.688,3.537
			c-0.309,0.855-0.682,1.456-1.12,1.802c-0.438,0.347-0.919,0.52-1.445,0.52c-0.921-0.045-1.523-0.623-1.807-1.733
			c-0.287-1.109-0.45-3.095-0.493-5.962V26.28c0-1.386-0.11-2.519-0.329-3.397c-0.219-0.878-0.559-1.56-1.018-2.044
			c-0.459-0.486-1.076-0.809-1.842-0.972c-0.767-0.161-1.676-0.242-2.728-0.242c-2.762,0-4.777,0.705-6.047,2.114
			c-1.271,1.411-1.906,3.778-1.906,7.106v8.423c-0.038,0.831-0.091,1.579-0.162,2.237c-0.154,1.423-0.386,2.541-0.691,3.352
			c-0.307,0.811-0.68,1.38-1.117,1.708c-0.438,0.329-0.919,0.493-1.445,0.493s-0.954-0.109-1.282-0.329
			c-0.33-0.219-0.558-0.646-0.689-1.281s-0.164-1.512-0.099-2.63c0.063-1.117,0.23-2.596,0.493-4.436
			c0.394-2.979,0.612-5.675,0.656-8.085c0.044-2.409-0.23-4.469-0.82-6.178c-0.593-1.709-1.558-3.024-2.894-3.943
			c-1.336-0.92-3.165-1.38-5.487-1.38c-2.147,0-4.075,0.625-5.784,1.873c-1.709,1.248-2.957,2.794-3.747,4.634
			c-0.745-2.016-1.885-3.605-3.419-4.766c-1.533-1.161-3.547-1.742-6.046-1.742c-1.534,0-2.958,0.46-4.271,1.38
			c-1.315,0.919-2.456,2.082-3.418,3.483c-0.658-1.008-1.512-1.808-2.563-2.399s-2.301-0.887-3.747-0.887
			c-1.709,0-3.068,0.295-4.075,0.887c-1.009,0.591-1.512,1.94-1.512,4.043v9.634c0,2.357-0.078,4.287-0.23,5.789
			c-0.154,1.502-0.384,2.681-0.69,3.537c-0.307,0.855-0.68,1.456-1.118,1.802c-0.438,0.347-0.92,0.52-1.446,0.52
			c-0.919-0.045-1.522-0.623-1.808-1.733c-0.285-1.109-0.449-3.095-0.493-5.962V26.28c0-1.386-0.109-2.519-0.328-3.397
			c-0.22-0.878-0.559-1.561-1.019-2.045c-0.46-0.486-1.074-0.809-1.84-0.972c-0.768-0.161-1.676-0.242-2.728-0.242
			c-2.761,0-4.776,0.705-6.047,2.114c-1.271,1.411-1.907,3.778-1.907,7.106v5.208c-0.003,2.307-0.288,4.333-0.854,6.076
			c-0.57,1.752-1.326,3.209-2.268,4.371c-0.942,1.162-2.048,2.038-3.32,2.629s-2.585,0.887-3.943,0.887
			c-1.71,0-3.211-0.307-4.502-0.92c-1.293-0.613-2.389-1.61-3.287-2.99c-0.898-1.381-1.578-3.155-2.038-5.325
			c-0.46-2.169-0.69-4.83-0.69-7.986c0-1.928,0.066-3.779,0.197-5.554c0.131-1.774,0.317-3.34,0.559-4.699
			c0.241-1.358,0.547-2.442,0.92-3.254c0.372-0.81,0.822-1.216,1.348-1.216c0.701,0,1.238,0.46,1.61,1.38
			c0.372,0.921,0.634,2.093,0.789,3.517c0.153,1.424,0.23,2.991,0.23,4.7c0,1.709,0,3.352,0,4.93c0,1.008,0.305,1.818,0.919,2.431
			c0.613,0.615,1.391,1.031,2.333,1.25c0.943,0.22,1.961,0.23,3.058,0.033c1.094-0.197,2.113-0.625,3.056-1.283
			c0.942-0.656,1.72-1.555,2.334-2.693c0.613-1.14,0.92-2.541,0.92-4.208c0-2.146-0.263-4.327-0.789-6.54
			c-0.526-2.212-1.392-4.207-2.597-5.981s-2.815-3.22-4.831-4.338c-2.016-1.118-4.513-1.676-7.493-1.676
			c-2.586,0-4.886,0.438-6.901,1.314c-2.016,0.877-3.725,2.257-5.126,4.141c-1.403,1.885-2.465,4.294-3.188,7.231
			c-0.723,2.936-1.084,6.441-1.084,10.516c0,8.327,1.522,14.493,4.569,18.503c3.044,4.008,7.657,6.014,13.836,6.014
			c3.329,0,6.288-0.517,8.873-1.545c2.585-1.029,4.754-2.487,6.507-4.371c0.595-0.64,1.138-1.325,1.638-2.048
			c0.199,0.579,0.432,1.141,0.728,1.672c0.745,1.34,1.883,2.46,3.417,3.362c1.533,0.9,3.637,1.352,6.311,1.352
			c3.797-0.114,6.708-1.319,8.734-3.61c0.255,0.942,0.658,1.68,1.223,2.196c1.029,0.943,2.289,1.414,3.779,1.414
			c1.533,0,2.892-0.263,4.075-0.789c1.183-0.527,2.169-1.402,2.958-2.629c0.744-1.14,1.183-2.553,1.313-4.239
			c0.132-1.688,0.198-3.649,0.198-5.883V28.691c0.173-0.395,0.394-0.723,0.657-0.985c0.263-0.264,0.568-0.395,0.919-0.395
			c1.008,0,1.646,0.56,1.906,1.676c0.265,1.116,0.394,3.034,0.394,5.751v10.253c0,3.156,0.582,5.401,1.743,6.737
			c1.161,1.338,3.188,2.006,6.08,2.006c1.052,0,1.918-0.153,2.597-0.46c0.679-0.307,1.215-0.712,1.609-1.216
			c0.396-0.503,0.669-1.073,0.822-1.709c0.153-0.634,0.23-1.259,0.23-1.874V31.124c0-0.746,0-1.336,0-1.775
			c0-0.437-0.044-0.789-0.131-1.052c0.262-0.262,0.557-0.493,0.886-0.689c0.329-0.197,0.712-0.296,1.151-0.296
			c1.139,0,1.84,0.636,2.103,1.906c0.264,1.272,0.197,3.549-0.196,6.835c-0.484,3.857-0.549,6.946-0.198,9.268
			c0.351,2.324,0.975,4.108,1.873,5.357c0.898,1.249,2.006,2.071,3.321,2.465c1.312,0.395,2.692,0.593,4.141,0.593
			c2.409,0,4.446-0.405,6.111-1.216c1.561-0.76,2.83-1.891,3.814-3.384c0.744,1.289,1.858,2.373,3.351,3.249
			c1.532,0.9,3.636,1.352,6.309,1.352c4.644-0.139,7.964-1.907,9.957-5.304c1.994-3.397,2.991-8.562,2.991-15.495
			C137.11,31.873,136.868,31.019,136.388,30.37z"/>
	</g>
</g>
</svg>
