<?xml version="1.0" encoding="utf-8"?>
<!-- Generator: Adobe Illustrator 24.0.1, SVG Export Plug-In . SVG Version: 6.00 Build 0)  -->
<svg version="1.1" id="Layer_1" xmlns="http://www.w3.org/2000/svg" xmlns:xlink="http://www.w3.org/1999/xlink" x="0px" y="0px"
	 viewBox="0 0 141.7 141.7" style="enable-background:new 0 0 141.7 141.7;" xml:space="preserve">
<style type="text/css">
	.st0{fill:#ECEEF1;}
	.st1{fill:#C1C6CC;}
</style>
<rect x="0.8" y="-0.2" class="st0" width="140.8" height="140.8"/>
<g>
	<path class="st0" d="M367.9-19.4h1.3c8.3,0.1,16.7,1.6,24.5,4.7c9.8,3.8,18.7,9.8,25.9,17.5c8.4,9,14.4,20.2,17.1,32.2
		c1.1,4.8,1.6,9.8,1.8,14.7v1.6c-0.1,11.9-3.3,23.8-9.2,34.1c-1.9,3.5-4.3,6.7-6.7,9.8c-0.4-0.9-0.7-1.8-0.9-2.8
		c-3-10.1-9.1-19.2-17.1-26c-5.8-5-12.6-8.6-19.9-10.9c2.2-1.7,4.4-3.4,6.1-5.6c3.8-4.5,6.2-10.3,6.6-16.2c0.5-5.9-0.9-11.9-3.9-17
		c-3.3-5.6-8.4-10-14.5-12.3c-5.8-2.3-12.3-2.6-18.3-0.9c-6,1.7-11.5,5.4-15.3,10.4c-4.3,5.6-6.4,12.8-5.7,19.8
		c0.6,7.8,4.6,15.3,10.8,20.2c0.7,0.5,1.3,1,2,1.5c-10.7,3.3-20.3,9.8-27.3,18.5c-4.1,5.1-7.2,10.8-9.3,17c-0.5,1.4-0.7,2.8-1.4,4.2
		c-6.2-7.5-10.8-16.3-13.4-25.7c-1.7-5.9-2.5-12-2.6-18.1v-1.3c0.1-6,0.9-11.9,2.5-17.7c2.7-9.8,7.5-19,14.1-26.8
		c6.1-7.2,13.6-13.1,22-17.3C346.7-16.8,357.3-19.3,367.9-19.4z"/>
</g>
<g>
	<path class="st1" d="M61.1,24.4c7.6-2.1,15.9-1.7,23.2,1.1c7.7,2.9,14.2,8.6,18.4,15.6c3.8,6.5,5.6,14.1,4.9,21.6
		c-0.6,7.5-3.6,14.8-8.4,20.5c-2.2,2.8-5,5-7.8,7.1c9.2,2.9,17.9,7.5,25.2,13.8c10.2,8.6,17.9,20.3,21.7,33.1
		c0.3,1.2,0.6,2.4,1.2,3.5c-7.9,9.7-17.9,17.6-29.1,23.1c-11,5.5-23.2,8.5-35.4,9.2h-7.3c-14-0.5-27.9-4.4-40.2-11.3
		c-9.5-5.4-18.1-12.5-25-21c0.8-1.7,1.1-3.6,1.7-5.3c2.6-7.8,6.6-15.2,11.8-21.6c8.8-11.1,21.1-19.4,34.6-23.5
		c-0.8-0.7-1.7-1.3-2.5-2c-7.8-6.2-12.9-15.7-13.7-25.7c-0.8-8.9,1.9-18,7.3-25.1C46.5,31.2,53.4,26.5,61.1,24.4z"/>
</g>
</svg>
