<?xml version="1.0" encoding="utf-8"?>
<!-- Generator: Adobe Illustrator 16.0.0, SVG Export Plug-In . SVG Version: 6.00 Build 0)  -->
<!DOCTYPE svg PUBLIC "-//W3C//DTD SVG 1.1//EN" "http://www.w3.org/Graphics/SVG/1.1/DTD/svg11.dtd">
<svg version="1.1" id="Capa_1" xmlns="http://www.w3.org/2000/svg" xmlns:xlink="http://www.w3.org/1999/xlink" x="0px" y="0px"
	 width="141.73px" height="141.73px" viewBox="0 0 141.73 141.73" enable-background="new 0 0 141.73 141.73" xml:space="preserve">
<path fill="#FFD15C" d="M96.057,57.595H45.672c-3.26,0-5.905-2.646-5.905-5.905V5.905c0-3.26,2.646-5.905,5.905-5.905h50.385
	c3.264,0,5.906,2.646,5.906,5.905V51.69C101.963,54.947,99.322,57.595,96.057,57.595"/>
<rect x="64.236" y="0" fill="#F3705A" width="13.264" height="14.911"/>
<g>
	
		<rect x="93.533" y="38.271" transform="matrix(0.999 0.0458 -0.0458 0.999 1.9966 -4.6724)" fill="#415A6B" width="18.871" height="5.935"/>
	
		<rect x="29.324" y="38.279" transform="matrix(-0.999 0.0458 -0.0458 -0.999 79.3665 80.6752)" fill="#415A6B" width="18.87" height="5.935"/>
</g>
<path fill="#AAE529" d="M99.99,62.237c-0.248-6.337-4.545-11.879-10.843-13.99l-18.28-6.13l-18.287,6.13
	c-6.298,2.111-10.594,7.653-10.842,13.99l-2.335,37.992c-0.289,7.358,4.937,13.887,12.487,15.594c12.49,2.832,25.461,2.832,37.958,0
	c7.55-1.707,12.768-8.235,12.486-15.594L99.99,62.237z"/>
<path fill="#3D9E15" d="M62.293,39.07c-0.721,4.151-1.131,8.882-1.131,13.91c0,16.429,4.343,29.758,9.706,29.758
	c5.356,0,9.699-13.328,9.699-29.758c0-5.028-0.41-9.759-1.13-13.91H62.293z"/>
<path fill="#415A6B" d="M70.868,91.499c-5.023,0-9.094,4.071-9.094,9.094v32.049c0,5.022,4.071,9.089,9.094,9.089
	c5.017,0,9.088-4.066,9.088-9.089v-32.049C79.956,95.57,75.885,91.499,70.868,91.499"/>
<path fill="#3D9E15" d="M84.583,116.833v-16.742c0-7.576-6.142-13.718-13.718-13.718c-7.571,0-13.715,6.142-13.715,13.718v16.742
	C66.238,118.303,75.497,118.303,84.583,116.833"/>
<g>
	<path fill="#344A5E" d="M99.01,46.16H42.719v-9.995c18.765-3.021,37.527-3.021,56.291,0V46.16L99.01,46.16z"/>
	<path fill="#344A5E" d="M85.412,40.03c0,8.034-6.51,14.545-14.55,14.545c-8.029,0-14.54-6.511-14.54-14.545
		s6.511-14.545,14.54-14.545C78.902,25.485,85.412,31.996,85.412,40.03"/>
</g>
<path fill="#E8EAE9" d="M80.233,40.03c0,5.173-4.192,9.372-9.366,9.372s-9.372-4.199-9.372-9.372s4.199-9.372,9.372-9.372
	S80.233,34.857,80.233,40.03"/>
<path fill="#F3F3F3" d="M70.868,49.399c-5.173,0-9.372-4.199-9.372-9.372c0-5.174,4.199-9.372,9.372-9.372V49.399z"/>
</svg>
