<?xml version="1.0" encoding="utf-8"?>
<!-- Generator: Adobe Illustrator 27.0.0, SVG Export Plug-In . SVG Version: 6.00 Build 0)  -->
<svg version="1.1" id="Layer_1" xmlns="http://www.w3.org/2000/svg" xmlns:xlink="http://www.w3.org/1999/xlink" x="0px" y="0px"
	 viewBox="0 0 857.3 425.1" style="enable-background:new 0 0 857.3 425.1;" xml:space="preserve">
<style type="text/css">
	.st0{fill:#666666;}
</style>
<g id="Layer_1_00000008834750847141865780000006546415327795510450_">
	<path class="st0" d="M138.8,80.8c-10-6.7-23.6-7.5-34.6-2c-17.4,8.7-24.6,33.8-27.4,51.2c-0.8,4.8-1.3,11.5-1.6,19.9
		c-1,32.5-0.9,64.9,0.3,97.4c0.9,23.9,8.3,65.8,36,73.8c15.4,4.4,30.2-2,37.9-16.1c6.4-11.6,8.7-21.7,21.5-27.5
		c3.1-1.4,7.7-2.4,13.9-3c6.8-0.6,13.6-1.1,20.4-1.5c13.2-0.7,23.7,3.2,23.4,18.9c-0.6,29.2-6.4,64.9-27.6,86.6
		c-41.5,42.3-108.1,37-150.7,0.6c-28.5-24.3-37.8-60.6-39.6-96.5c-2.5-50.5-2.3-101,0.6-151.5c0.5-7.8,1.2-14.5,2.1-19.9
		c8.7-49.4,32.7-98.1,88.6-105c18.9-2.3,37.4-0.9,55.6,4.3c28.2,8,48.5,26.9,58,55.1c5.1,15.1,7.7,29.8,7.7,44
		c0,9.3-4.7,14.4-14.3,15.5c-8.6,0.9-17.1,1.8-25.7,2.6c-10.1,0.9-19.6-2-23.3-12.1C155.2,102.5,151,88.9,138.8,80.8L138.8,80.8z
		 M781.6,132.7c-21.1-2.9-37.4-14.9-41.7-36.3c-1-4.9-1-11.6-0.1-19.9c1.5-13.7,4.3-27.1,8.3-40.3c5-16.4,15.8-26.3,32.2-29.5
		c26.5-5.2,64.3,2.2,67.6,35.7c2,21.1,2,40.4-0.1,57.8C844.2,130.4,805.7,136,781.6,132.7z M553.5,50.7c5.5-2.9,10.7-8.2,15.6-12.2
		c5.6-4.7,13.1-8.3,22.5-10.8c23.5-6.3,51.5-7.5,74,1.7c22.9,9.4,33.9,26.4,41.2,49.1c7.9,24.4,10.6,47.7,10.7,73.2
		c0.5,79.3,0.9,158.5,1.1,237.8c0,12.9-0.9,22.9-16.4,22.1c-10.9-0.6-21.8-1.3-32.8-2c-13.3-0.9-16.7-5.6-16.9-18.4l-2.4-226.8
		c0-14.6-0.2-25-0.5-31.2c-0.8-14.6-7.1-28.4-23.3-30.7c-16.4-2.4-39.4,2.9-42.5,22.2c-0.3,1.7-0.3,6.3-0.1,14
		c2.1,76.5,4.2,153,6.4,229.6c0.2,8.6-0.1,14.1-1.1,16.7c-3.6,9.8-12.6,9.2-23.4,9.9c-10.2,0.6-20.3,1.2-30.5,1.6
		c-13.3,0.6-26.3-1.1-26.1-18.1c0.8-68.4,1.8-136.7,2.7-205.1c0.2-10.8,0.3-21.6,0.3-32.4c0-5.1-0.4-9.1-1.3-11.9
		c-5-15.7-21.7-22.9-37.2-19.9c-14.5,2.9-20.1,21-20,33.8c0.6,82.6,1.3,165.2,2.1,247.8c0.1,12.2-0.7,21.5-14.5,22.8
		c-6.3,0.6-19.4,1.6-39.4,3c-12,0.8-24.2-0.5-24.4-15.9c-1.1-90.4-2.4-180.8-3-271.2c-0.3-47.5,15.2-94.6,66.3-108.7
		c19.7-5.4,39.8-4.8,59.2-0.6c14.3,3.1,25.6,10.4,33.9,21.9C538.8,48.5,544.3,56.6,553.5,50.7z M276.2,108.9
		c-13.4,0.5-16.7-9.7-17.2-21.1c-1-22.2-1.5-39-1.3-50.2c0.2-10,4.3-16.4,12.5-19.2c7.8-2.6,21.5-1.3,30.9-1.6
		c3.2-0.1,6.2,2.3,6.6,5.3c4,26.8,7.8,53.5,11.4,80c0.3,2.2-1.2,4.2-3.4,4.6h-0.2C302.5,107.7,289.4,108.5,276.2,108.9z
		 M285.8,408.8c-11.8-0.7-19.7-8.9-20.1-20.8c-2.7-78.2-5.4-156.4-8-234.6c-0.6-18.2,1.6-30.3,23.3-30.3c12.8,0,25.7,0,38.5,0.2
		c7.3,0.1,12.4,0.7,15.2,1.9c11.2,4.5,10.9,14.3,11.1,26.3c2.1,87.1-6.4,173.3-25.4,258.5c0,0.2-0.2,0.3-0.4,0.3
		C308.7,410,297.3,409.5,285.8,408.8z M765.3,406.9c-18.3-1.3-18.8-16.9-17.9-30.8c4.3-71.7,8.7-143.5,13-215.2
		c1.5-24,15.4-21.7,34.4-19.8c7.7,0.8,12.4,1.5,14.2,2.2c11.5,4.5,10.2,19.6,10.1,30.1c-0.7,72.4-1.3,144.9-2,217.3
		c0,2.2-0.7,4.9-1.9,8c-2.6,6.4-6.4,10-13.5,9.9C789.5,408.3,777.4,407.8,765.3,406.9L765.3,406.9z"/>
</g>
</svg>
