<?xml version="1.0" encoding="utf-8"?>
<!-- Generator: Adobe Illustrator 27.0.0, SVG Export Plug-In . SVG Version: 6.00 Build 0)  -->
<svg version="1.1" id="Layer_1" xmlns="http://www.w3.org/2000/svg" xmlns:xlink="http://www.w3.org/1999/xlink" x="0px" y="0px"
	 viewBox="0 0 100 100" style="enable-background:new 0 0 100 100;" xml:space="preserve">
<style type="text/css">
	.st0{fill-rule:evenodd;clip-rule:evenodd;fill:#FFFFFF;}
</style>
<path class="st0" d="M50.6,61.9L61.5,51c0.6-0.6,0.6-1.5,0-2.1L50.6,38c-0.6-0.6-0.6-1.5,0-2.1l3.5-3.5c0.6-0.6,1.5-0.6,2.1,0
	l16.5,16.5c0.6,0.6,0.6,1.5,0,2.1L56.2,67.5c-0.6,0.6-1.5,0.6-2.1,0l-3.5-3.5C50,63.5,50,62.5,50.6,61.9z"/>
<path class="st0" d="M89.8,7.8H9.1c-1,0-1.8,0.8-1.8,1.8v80.7c0,1,0.8,1.8,1.8,1.8h80.7c1,0,1.8-0.8,1.8-1.8V9.6
	C91.7,8.6,90.8,7.8,89.8,7.8z M83.7,82.4c0,1-0.8,1.8-1.8,1.8H38.1c-1,0-1.8-0.8-1.8-1.8V17.5c0-1,0.8-1.8,1.8-1.8h43.8
	c1,0,1.8,0.8,1.8,1.8V82.4z"/>
</svg>
