<?xml version="1.0" encoding="utf-8"?>
<!-- Generator: Adobe Illustrator 27.0.0, SVG Export Plug-In . SVG Version: 6.00 Build 0)  -->
<svg version="1.1" id="Layer_1" xmlns="http://www.w3.org/2000/svg" xmlns:xlink="http://www.w3.org/1999/xlink" x="0px" y="0px"
	 viewBox="0 0 2039 512" style="enable-background:new 0 0 2039 512;" xml:space="preserve">
<style type="text/css">
	.st0{fill:#FFFFFF;}
</style>
<g>
	<path class="st0" d="M951.4,274.2c-12.7-7.8-26.8-13.9-42.1-18.5c-15.4-4.6-30.7-8.7-46.1-12.2c-15.4-3.5-29.4-7.1-42.1-10.6
		c-12.7-3.5-23-8.2-30.7-14c-7.8-5.8-11.7-13.5-11.7-23c0-8.1,2.3-15.3,6.9-21.5c4.6-6.2,12.2-11.2,22.8-15.1
		c10.6-3.9,24.2-5.8,40.8-5.8s33.6,2.4,50.9,7.2c16.1,4.5,32.1,11.1,48.2,19.9c2,1.1,4.5,0.2,5.3-1.9l23.7-58.3
		c0.7-1.7,0.1-3.7-1.5-4.6C959.1,105.8,940,98,918.6,92.9c-22.6-5.5-45.6-8.2-68.9-8.2c-35,0-64,5.2-87.2,15.6
		c-23.1,10.4-40.4,24.4-51.9,41.9s-17.2,36.8-17.2,58c0,19.8,4,36,11.9,48.7s18.3,23,31,30.7c12.7,7.8,26.8,14.1,42.1,19.1
		c15.4,5,30.7,9.1,46.1,12.4c15.4,3.4,29.4,6.9,42.1,10.6c12.7,3.7,23,8.5,30.7,14.3c7.8,5.8,11.7,13.7,11.7,23.6
		c0,7.8-2.5,14.7-7.4,20.7c-5,6-12.6,10.7-23,14c-10.4,3.4-24.1,5-41.1,5c-22.3,0-44.2-3.6-66-10.9c-20.1-6.7-37.6-15.1-52.8-25.3
		c-1.9-1.3-4.5-0.5-5.5,1.6l-26,57.8c-0.7,1.6-0.2,3.5,1.2,4.6c16.3,11.9,37.4,21.6,63.2,29.2c27.2,7.9,55.6,11.9,85.3,11.9
		c35.3,0,64.5-5.3,87.7-15.9c23.1-10.6,40.5-24.5,52.2-41.9c11.7-17.3,17.5-36.4,17.5-57.2c0-19.4-4-35.5-11.9-48.2
		S964.1,281.9,951.4,274.2z"/>
	<path class="st0" d="M1225.3,317.6c0,17.3-2.8,31.7-8.5,43.2s-13.4,20-23.3,25.4c-9.9,5.5-21.2,8.2-33.9,8.2
		c-18.4,0-32.6-5.6-42.6-16.7c-10.1-11.1-15.1-28.5-15.1-52.2V180.4c0-2.1-1.7-3.7-3.7-3.7H1023c-2.1,0-3.7,1.7-3.7,3.7v157.4
		c0,29.3,5.1,53.4,15.4,72.3c10.2,18.9,24.6,32.9,43.2,42.1c18.5,9.2,39.6,13.8,63.3,13.8c21.9,0,42.1-5,60.7-15.1
		c8-4.4,15.1-9.6,21.4-15.7c2.4-2.3,6.4-0.7,6.4,2.7V458c0,2.1,1.7,3.7,3.7,3.7h70.9c2.1,0,3.7-1.7,3.7-3.7V180.4
		c0-2.1-1.7-3.7-3.7-3.7h-75.1c-2.1,0-3.7,1.7-3.7,3.7v137.2H1225.3z"/>
	<path class="st0" d="M1335.5,176.7h75.1c2.1,0,3.7,1.7,3.7,3.7V458c0,2.1-1.7,3.7-3.7,3.7h-75.1c-2.1,0-3.7-1.7-3.7-3.7V180.4
		C1331.8,178.4,1333.5,176.7,1335.5,176.7z"/>
	<path class="st0" d="M1410.2,57.2c-9.5-8.3-21.9-12.5-37.1-12.5s-27.5,4.4-37.1,13.2c-9.5,8.8-14.3,19.8-14.3,32.8
		c0,13.1,4.8,24,14.3,32.8s21.9,13.2,37.1,13.2c15.5,0,28-4.5,37.4-13.5s14-20.4,14-34.2C1424.5,76.2,1419.8,65.5,1410.2,57.2z"/>
	<path class="st0" d="M1593,400.3c-11,0-19.6-3.3-26-9.8s-9.5-15.8-9.5-27.8V250.4c0-2.1,1.7-3.7,3.7-3.7h63.5
		c2.1,0,3.7-1.7,3.7-3.7v-56.2c0-2.1-1.7-3.7-3.7-3.7h-63.5c-2.1,0-3.7-1.7-3.7-3.7v-61.9c0-2.1-1.7-3.7-3.7-3.7h-75.1
		c-2.1,0-3.7,1.7-3.7,3.7v61.9c0,2.1-1.7,3.7-3.7,3.7h-36.5c-2.1,0-3.7,1.7-3.7,3.7v56.1c0,2.1,1.7,3.7,3.7,3.7h36.5
		c2.1,0,3.7,1.7,3.7,3.7v113.4c0,33.9,9.4,59.4,28.1,76.6c18.7,17.1,44.9,25.7,78.4,25.7c12.7,0,25-1.5,36.8-4.5
		c10.6-2.7,20-6.6,28-11.8c1.5-1,2.1-2.8,1.5-4.5l-19.5-51.1c-0.8-2.2-3.5-3.1-5.5-1.8C1614.2,397.6,1604.4,400.3,1593,400.3z"/>
	<path class="st0" d="M1919.4,241.1c-13.1-22.1-30.8-39-53.2-50.9c-22.4-11.8-47.6-17.7-75.5-17.7c-29,0-54.9,6.3-77.9,18.8
		s-41.1,29.9-54.3,51.9c-13.2,22.1-19.9,47.4-19.9,76c0,28.3,6.7,53.4,20.1,75.5s32.4,39.5,57,52.2c24.5,12.7,53.1,19.1,85.6,19.1
		c25.8,0,48.6-4,68.3-11.9c18.6-7.4,34.3-18,46.9-31.6c1.3-1.4,1.4-3.7,0-5.1l-39.1-42.4c-1.4-1.5-3.7-1.6-5.2-0.2
		c-8.8,7.9-18.4,14-28.8,18.2c-11.5,4.6-24.8,6.9-40,6.9c-17,0-31.7-3.1-44.2-9.3c-12.5-6.2-22.3-15.2-29.1-27
		c-2.9-5-5.2-10.4-6.9-16c-0.7-2.4,1.1-4.9,3.6-4.9h207.3c1.9,0,3.5-1.5,3.7-3.4c0.2-2.5,0.5-5.2,0.8-8c0.3-4.1,0.5-7.7,0.5-10.9
		C1939,289.5,1932.4,263.1,1919.4,241.1z M1753.8,244.2c10.8-6.2,23.2-9.3,37.4-9.3c14.1,0,26.5,3.1,37.1,9.3s18.9,14.8,24.9,25.7
		c3.3,6,5.7,12.6,7.2,19.8c0.5,2.3-1.3,4.6-3.7,4.6h-131.4c-2.4,0-4.2-2.2-3.7-4.6c1.5-7.1,3.8-13.6,7.1-19.5
		C1734.6,259.1,1743,250.4,1753.8,244.2z"/>
</g>
<path class="st0" d="M554,129.9c-14.2-14.2-33-22-53-22h-46.7V61.3c0-13.5-5.3-26.3-14.8-35.8c-9.6-9.6-22.3-14.8-35.8-14.8H257.6
	c-13.5,0-26.3,5.3-35.8,14.8c-9.6,9.6-14.8,22.3-14.8,35.8V108h-46.7c-20,0-38.9,7.8-53.1,22c-14.2,14.2-22,33-22,53.1v243.4
	c0,20,7.8,38.9,22,53c14.2,14.2,33,22,53.1,22H501c20,0,38.9-7.8,53-22c14.2-14.2,22-33,22-53V183C576,162.9,568.2,144.1,554,129.9z
	 M259.6,108V63.3h142.1V108H259.6z M230.6,368.1l44,44c5,5,11.7,7.8,18.8,7.8c0,0,0,0,0,0c7.1,0,13.8-2.8,18.8-7.8l121-121v47.5
	c0,7.8,6.4,14.2,14.2,14.2H472c7.8,0,14.2-6.4,14.2-14.2V214.7c0-7.8-6.4-14.2-14.2-14.2H348.1c-7.8,0-14.2,6.4-14.2,14.2v24.7
	c0,7.8,6.4,14.2,14.2,14.2h47.5L293.4,355.8l-44-44c-10.3-10.3-27.2-10.3-37.5,0l-74,74V183c0-6,2.3-11.6,6.5-15.8s9.8-6.5,15.8-6.5
	H501c6,0,11.6,2.3,15.8,6.5c4.2,4.2,6.5,9.8,6.5,15.8v243.4c0,6-2.3,11.6-6.5,15.8c-4.2,4.2-9.8,6.5-15.8,6.5H160.2
	c-2.9,0-5.8-0.6-8.5-1.7L230.6,368.1z"/>
</svg>
