<svg xmlns="http://www.w3.org/2000/svg" xml:space="preserve" style="enable-background:new 0 0 857.3 425.1" viewBox="0 0 857.3 425.1"><style>.st1{fill:#fff}</style><g id="Layer_1"><path d="M138.8 80.8c-10-6.7-23.6-7.5-34.6-2-17.4 8.7-24.6 33.8-27.4 51.2-.8 4.8-1.3 11.5-1.6 19.9-1 32.5-.9 64.9.3 97.4.9 23.9 8.3 65.8 36 73.8 15.4 4.4 30.2-2 37.9-16.1 6.4-11.6 8.7-21.7 21.5-27.5 3.1-1.4 7.7-2.4 13.9-3 6.8-.6 13.6-1.1 20.4-1.5 13.2-.7 23.7 3.2 23.4 18.9-.6 29.2-6.4 64.9-27.6 86.6-41.5 42.3-108.1 37-150.7.6-28.5-24.3-37.8-60.6-39.6-96.5-2.5-50.5-2.3-101 .6-151.5.5-7.8 1.2-14.5 2.1-19.9 8.7-49.4 32.7-98.1 88.6-105 18.9-2.3 37.4-.9 55.6 4.3 28.2 8 48.5 26.9 58 55.1 5.1 15.1 7.7 29.8 7.7 44 0 9.3-4.7 14.4-14.3 15.5-8.6.9-17.1 1.8-25.7 2.6-10.1.9-19.6-2-23.3-12.1-4.8-13.1-9-26.7-21.2-34.8zM781.6 132.7c-21.1-2.9-37.4-14.9-41.7-36.3-1-4.9-1-11.6-.1-19.9 1.5-13.7 4.3-27.1 8.3-40.3 5-16.4 15.8-26.3 32.2-29.5 26.5-5.2 64.3 2.2 67.6 35.7 2 21.1 2 40.4-.1 57.8-3.6 30.2-42.1 35.8-66.2 32.5zM553.5 50.7c5.5-2.9 10.7-8.2 15.6-12.2 5.6-4.7 13.1-8.3 22.5-10.8 23.5-6.3 51.5-7.5 74 1.7 22.9 9.4 33.9 26.4 41.2 49.1 7.9 24.4 10.6 47.7 10.7 73.2.5 79.3.9 158.5 1.1 237.8 0 12.9-.9 22.9-16.4 22.1-10.9-.6-21.8-1.3-32.8-2-13.3-.9-16.7-5.6-16.9-18.4l-2.4-226.8c0-14.6-.2-25-.5-31.2-.8-14.6-7.1-28.4-23.3-30.7-16.4-2.4-39.4 2.9-42.5 22.2-.3 1.7-.3 6.3-.1 14 2.1 76.5 4.2 153 6.4 229.6.2 8.6-.1 14.1-1.1 16.7-3.6 9.8-12.6 9.2-23.4 9.9-10.2.6-20.3 1.2-30.5 1.6-13.3.6-26.3-1.1-26.1-18.1.8-68.4 1.8-136.7 2.7-205.1.2-10.8.3-21.6.3-32.4 0-5.1-.4-9.1-1.3-11.9-5-15.7-21.7-22.9-37.2-19.9-14.5 2.9-20.1 21-20 33.8.6 82.6 1.3 165.2 2.1 247.8.1 12.2-.7 21.5-14.5 22.8-6.3.6-19.4 1.6-39.4 3-12 .8-24.2-.5-24.4-15.9-1.1-90.4-2.4-180.8-3-271.2-.3-47.5 15.2-94.6 66.3-108.7 19.7-5.4 39.8-4.8 59.2-.6 14.3 3.1 25.6 10.4 33.9 21.9 5.1 6.5 10.6 14.6 19.8 8.7zM276.2 108.9c-13.4.5-16.7-9.7-17.2-21.1-1-22.2-1.5-39-1.3-50.2.2-10 4.3-16.4 12.5-19.2 7.8-2.6 21.5-1.3 30.9-1.6 3.2-.1 6.2 2.3 6.6 5.3 4 26.8 7.8 53.5 11.4 80 .3 2.2-1.2 4.2-3.4 4.6h-.2c-13 1-26.1 1.8-39.3 2.2zM285.8 408.8c-11.8-.7-19.7-8.9-20.1-20.8-2.7-78.2-5.4-156.4-8-234.6-.6-18.2 1.6-30.3 23.3-30.3 12.8 0 25.7 0 38.5.2 7.3.1 12.4.7 15.2 1.9 11.2 4.5 10.9 14.3 11.1 26.3 2.1 87.1-6.4 173.3-25.4 258.5 0 .2-.2.3-.4.3-11.3-.3-22.7-.8-34.2-1.5zM765.3 406.9c-18.3-1.3-18.8-16.9-17.9-30.8 4.3-71.7 8.7-143.5 13-215.2 1.5-24 15.4-21.7 34.4-19.8 7.7.8 12.4 1.5 14.2 2.2 11.5 4.5 10.2 19.6 10.1 30.1-.7 72.4-1.3 144.9-2 217.3 0 2.2-.7 4.9-1.9 8-2.6 6.4-6.4 10-13.5 9.9-12.2-.3-24.3-.8-36.4-1.7z" class="st1"/></g></svg>